<svg width="24" height="24" viewBox="0 0 24 24" fill="none" xmlns="http://www.w3.org/2000/svg">
<path d="M21.9096 10.583C21.9581 10 21.4981 9.5 20.913 9.5H18.9998C18.4475 9.5 17.9998 9.9477 17.9998 10.5V20.5C17.9998 21.0523 18.4475 21.5 18.9998 21.5H20.0797C20.5998 21.5 21.033 21.1013 21.0762 20.583L21.9096 10.583Z" stroke="#E19909" stroke-width="2" stroke-linecap="round" stroke-linejoin="round"/>
<path d="M15 10.6873C15 10.2694 14.7403 9.8954 14.3624 9.71725C13.5381 9.3287 12.1335 8.5469 11.5 7.49025C10.6834 6.12845 10.5295 3.668 10.5044 3.1044C10.5009 3.0255 10.5032 2.9465 10.4923 2.8683C10.357 1.89225 8.47285 3.03245 7.75 4.23805C7.3577 4.89235 7.3074 5.752 7.34865 6.42315C7.3928 7.14125 7.60335 7.83495 7.8099 8.52415L8.25 9.99225H2.82155C2.1584 9.99225 1.67895 10.6259 1.8592 11.264L4.54435 20.7718C4.666 21.2026 5.0591 21.5 5.5067 21.5H14C14.5523 21.5 15 21.0523 15 20.5V10.6873Z" stroke="#E19909" stroke-width="2" stroke-linecap="round" stroke-linejoin="round"/>
</svg>
