<svg width="170" height="100" viewBox="0 0 170 100" fill="none" xmlns="http://www.w3.org/2000/svg">
<path d="M153.106 0.00120499C153.93 0.0212381 154.82 0.251602 155.444 0.72235L158.844 3.28642C160.079 4.2179 160.172 5.71027 159.056 6.73189L112.2 49.6V56.4108H78.2V48.7186C78.2 47.9674 78.6117 47.2863 79.3687 46.7955L150.769 0.642223C151.446 0.211538 152.283 -0.0188255 153.106 0.00120499ZM156.4 17.2286V38.4623C156.4 39.8745 154.873 41.0263 153 41.0263C151.127 41.0263 149.6 42.1782 149.6 43.5904C149.6 45.0027 151.127 46.1545 153 46.1545C154.873 46.1545 156.4 45.0027 156.4 43.5904H163.2C163.2 47.8271 158.618 51.2826 153 51.2826C147.382 51.2826 142.8 47.8271 142.8 43.5904C142.8 40.2451 145.642 37.3605 149.6 36.2988V23.4785L156.4 17.2286ZM61.2 23.0779C66.818 23.0779 71.4 26.5333 71.4 30.7701V87.1796H57.4812C55.8477 94.4412 47.4937 100 37.4 100C27.3062 100 18.9391 94.4412 17.3187 87.1796H10.2C4.58203 87.1796 -4.76837e-06 83.7242 -4.76837e-06 79.4874V54.8082C-4.76837e-06 49.65 4.92734 44.3817 5.525 43.7507L19.6562 29.488C22.8969 26.5434 27.9703 23.0779 34 23.0779H61.2ZM40.8 38.4623H19.2312L10.9437 46.7955C9.90781 47.8872 7.42422 51.0322 6.90625 53.8467H40.8C42.3273 53.8467 44.2 52.4345 44.2 51.2826V41.0263C44.2 39.6041 42.3406 38.4623 40.8 38.4623ZM170 61.5389V79.4874C170 83.7242 165.418 87.1796 159.8 87.1796H145.881C144.248 94.4412 135.894 100 125.8 100C115.706 100 107.352 94.4412 105.719 87.1796H78.2V61.5389H170ZM125.8 74.3593C118.296 74.3593 112.2 78.9566 112.2 84.6156C112.2 90.2746 118.296 94.8719 125.8 94.8719C133.304 94.8719 139.4 90.2746 139.4 84.6156C139.4 78.9566 133.304 74.3593 125.8 74.3593ZM37.4 74.3593C29.8961 74.3593 23.8 78.9566 23.8 84.6156C23.8 90.2746 29.8961 94.8719 37.4 94.8719C44.9039 94.8719 51 90.2746 51 84.6156C51 78.9566 44.9039 74.3593 37.4 74.3593Z" fill="#E19909"/>
</svg>
