<svg width="24" height="24" viewBox="0 0 24 24" fill="none" xmlns="http://www.w3.org/2000/svg">
<path d="M12 20C14.1217 20 16.1566 19.1571 17.6569 17.6569C19.1571 16.1566 20 14.1217 20 12C20 9.87827 19.1571 7.84344 17.6569 6.34315C16.1566 4.84285 14.1217 4 12 4C9.87827 4 7.84344 4.84285 6.34315 6.34315C4.84285 7.84344 4 9.87827 4 12C4 14.1217 4.84285 16.1566 6.34315 17.6569C7.84344 19.1571 9.87827 20 12 20V20ZM12 22C6.477 22 2 17.523 2 12C2 6.477 6.477 2 12 2C17.523 2 22 6.477 22 12C22 17.523 17.523 22 12 22Z" fill="#4F378B"/>
<path d="M15.6449 11.404C15.6569 9.91197 14.4259 8.54396 12.9009 8.35496L12.8009 8.33996C12.7244 8.32478 12.6468 8.31608 12.5689 8.31396C12.2559 8.31396 12.1729 8.53996 12.1509 8.67496C12.1384 8.73103 12.1373 8.78903 12.1476 8.84554C12.1579 8.90204 12.1794 8.95591 12.2109 9.00396C12.3149 9.14896 12.4969 9.17396 12.6429 9.19596C12.6859 9.20196 12.7269 9.20696 12.7599 9.21596C14.1309 9.53096 14.5929 10.028 14.8179 11.431C14.8239 11.466 14.8259 11.508 14.8279 11.553C14.8379 11.72 14.8589 12.069 15.2229 12.069C15.2529 12.069 15.2849 12.067 15.3189 12.061C15.6579 12.008 15.6469 11.689 15.6419 11.536C15.6394 11.499 15.6394 11.4619 15.6419 11.425C15.643 11.4183 15.6437 11.4117 15.6439 11.405L15.6449 11.404Z" fill="#4F378B"/>
<path d="M12.4804 7.80689C12.5204 7.80989 12.5604 7.81289 12.5914 7.81789C14.8414 8.17589 15.8774 9.27589 16.1644 11.6179C16.1694 11.6579 16.1694 11.7059 16.1704 11.7579C16.1734 11.9409 16.1794 12.3209 16.5754 12.3289H16.5874C16.6417 12.3318 16.6961 12.323 16.7468 12.3032C16.7975 12.2833 16.8434 12.2529 16.8814 12.2139C17.0044 12.0809 16.9964 11.8839 16.9894 11.7239C16.9874 11.6859 16.9854 11.6489 16.9864 11.6169C17.0144 9.22189 15.0064 7.04989 12.6884 6.96989L12.6604 6.97089C12.6514 6.97221 12.6424 6.97287 12.6334 6.97289C12.6104 6.97289 12.5814 6.97089 12.5514 6.96889C12.5115 6.96524 12.4714 6.96324 12.4314 6.96289C12.0624 6.96289 11.9924 7.23289 11.9834 7.39489C11.9634 7.76789 12.3124 7.79489 12.4804 7.80689V7.80689ZM16.0554 14.6439C16.0072 14.6062 15.9595 14.5678 15.9124 14.5289C15.6664 14.3249 15.4044 14.1369 15.1524 13.9549C15.0996 13.917 15.047 13.879 14.9944 13.8409C14.6704 13.6069 14.3794 13.4919 14.1044 13.4919C13.7344 13.4919 13.4114 13.7039 13.1444 14.1209C13.0264 14.3049 12.8824 14.3949 12.7064 14.3949C12.5835 14.3905 12.463 14.3595 12.3534 14.3039C11.3084 13.8139 10.5614 13.0639 10.1344 12.0739C9.92837 11.5939 9.99437 11.2819 10.3584 11.0269C10.5644 10.8829 10.9484 10.6139 10.9214 10.0989C10.8914 9.51389 9.64037 7.75389 9.11337 7.55389C8.88856 7.46905 8.64066 7.46834 8.41537 7.55189C7.81037 7.76189 7.37537 8.13189 7.15837 8.61889C6.94837 9.09089 6.95837 9.64389 7.18637 10.2199C7.84337 11.8859 8.76637 13.3379 9.93237 14.5359C11.0724 15.7089 12.4744 16.6689 14.0984 17.3909C14.2444 17.4559 14.3984 17.4909 14.5104 17.5169L14.6054 17.5409C14.6184 17.5446 14.6318 17.5466 14.6454 17.5469H14.6584C15.4224 17.5469 16.3394 16.8269 16.6214 16.0049C16.8684 15.2849 16.4174 14.9299 16.0554 14.6449V14.6439ZM12.8184 9.70989C12.6884 9.71289 12.4154 9.71989 12.3194 10.0059C12.2754 10.1399 12.2804 10.2559 12.3354 10.3509C12.4164 10.4909 12.5724 10.5339 12.7134 10.5569C13.2254 10.6419 13.4894 10.9349 13.5414 11.4769C13.5664 11.7309 13.7314 11.9069 13.9434 11.9069C13.9594 11.9072 13.9754 11.9066 13.9914 11.9049C14.2464 11.8729 14.3694 11.6799 14.3584 11.3299C14.3624 10.9639 14.1774 10.5499 13.8624 10.2199C13.5464 9.88789 13.1654 9.70089 12.8184 9.70989V9.70989Z" fill="#4F378B"/>
</svg>
